<svg>
  <symbol xmlns="http://www.w3.org/2000/svg" width="24" height="30" id="apple_logo">
    <path fill="#FFF" fill-rule="evenodd"
      d="M13.25 3C15.167.5 17.833.5 17.833.5s.417 2.333-1.5 4.667C14.25 7.5 12 7.167 12 7.167S11.5 5.25 13.25 3zm-1.083 5.833c1 0 2.833-1.333 5.166-1.333C21.417 7.5 23 10.417 23 10.417s-3.167 1.583-3.167 5.5c0 4.416 3.917 5.916 3.917 5.916s-2.75 7.75-6.417 7.75c-1.666 0-3-1.166-4.833-1.166-1.833 0-3.667 1.166-4.833 1.166C4.25 29.583 0 22.25 0 16.333 0 10.5 3.583 7.5 7 7.5c2.333 0 4.083 1.333 5.167 1.333z">
    </path>
  </symbol>
  <symbol viewBox="0 0 22 16" xmlns="http://www.w3.org/2000/svg" width="22" height="16" id="car">
    <path fill="#A6A6A6" fill-rule="nonzero"
      d="M21.18 8.559c0-.932-.722-1.682-1.619-1.682l-1.118-.182-1.916-2.997c-.027-.024-.05-.08-.077-.103a1.632 1.632 0 0 0-1.32-.698h-3.634V.96c0-.53-.379-.96-.848-.96h-9.8C.378 0 0 .43 0 .96v12.225c0 .544.424.956.92.956h1.32C2.539 15.227 3.486 16 4.63 16s2.092-.8 2.39-1.86h8.137C15.454 15.228 16.4 16 17.546 16c1.145 0 2.092-.8 2.39-1.86h1.144c.523 0 .92-.44.92-.955v-1.212c0-.497-.374-.909-.82-.96V8.559zM4.63 14.707c-.699 0-1.244-.594-1.244-1.292 0-.698.572-1.293 1.244-1.293.699 0 1.244.595 1.244 1.293s-.545 1.292-1.244 1.292zm8.57-7.914a.119.119 0 0 1-.117-.122V4.297c0-.065.05-.122.117-.122h1.975c.04 0 .076.02.094.052L16.807 6.6c.05.08-.005.187-.095.187H13.2v.005zm4.346 7.914c-.699 0-1.244-.594-1.244-1.292 0-.698.572-1.293 1.244-1.293.699 0 1.244.595 1.244 1.293s-.572 1.292-1.244 1.292z">
    </path>
  </symbol>
  <symbol xmlns="http://www.w3.org/2000/svg" width="22" height="22" id="checkmark">
    <g fill="none" fill-rule="evenodd">
      <path fill="#FFF" d="M22 11c0 6.075-4.925 11-11 11S0 17.075 0 11 4.925 0 11 0s11 4.925 11 11z"></path>
      <path fill="#20A052" d="M9.651 16.162l8.02-8.019-1.726-1.727L9.65 12.71l-2.424-2.425L5.5 12.01z"></path>
    </g>
  </symbol>
  <symbol width="50" height="50" viewBox="0 0 50 50" xmlns="http://www.w3.org/2000/svg" id="computer">
    <g fill-rule="nonzero" fill="#FFF">
      <path
        d="M45.175 36.156h1.136c1.95 0 3.517-1.702 3.517-3.76V3.934c0-2.057-1.567-3.76-3.515-3.76H3.516C1.568.175 0 1.878 0 3.935v28.462c0 2.058 1.568 3.76 3.516 3.76H27.49c.358 0 .648-.29.648-.645 0-.355-.29-.644-.647-.644H3.517c-1.208 0-2.222-1.1-2.222-2.47V3.934c0-1.368 1.014-2.47 2.222-2.47h42.796c1.207 0 2.22 1.102 2.22 2.47v28.462c0 1.37-1.013 2.47-2.22 2.47h-1.137c-.357 0-.647.29-.647.645 0 .357.29.646.647.646z">
      </path>
      <path
        d="M45.175 29.646h4.005c.358 0 .647-.288.647-.645 0-.355-.29-.643-.647-.643h-4.005c-.357 0-.647.288-.647.644 0 .358.29.646.647.646zM.647 29.646h26.847c.357 0 .647-.288.647-.645 0-.355-.29-.643-.646-.643H.647C.29 28.357 0 28.645 0 29c0 .358.29.646.647.646zM13.85 39.27h2.585c1.74 0 3.177-1.358 3.464-3.114h7.59c.358 0 .648-.29.648-.645 0-.355-.29-.644-.647-.644h-8.186c-.357 0-.647.29-.647.645 0 1.37-1.014 2.47-2.222 2.47h-3.23c-.36 0-.648.29-.648.645v3.3c0 .356.29.645.647.645H27.49c.358 0 .648-.29.648-.645 0-.356-.29-.645-.647-.645H13.85v-2.01z">
      </path>
      <path
        d="M45.823 46.066c0 2.057-1.568 3.76-3.516 3.76H30.36c-1.948 0-3.516-1.703-3.516-3.76V20.21c0-2.056 1.568-3.758 3.516-3.758h11.947c1.948 0 3.516 1.702 3.516 3.76v25.854zm-1.295 0V20.21c0-1.367-1.014-2.468-2.22-2.468H30.36c-1.208 0-2.222 1.1-2.222 2.47v25.854c0 1.368 1.014 2.47 2.222 2.47h11.947c1.207 0 2.22-1.1 2.22-2.47z">
      </path>
      <path
        d="M28.138 41.28V29c0-.355-.29-.644-.647-.644-.357 0-.646.29-.646.645v12.925c0 .357.29.645.647.645h17.685c.358 0 .648-.288.648-.645V29c0-.355-.29-.644-.648-.644-.357 0-.647.29-.647.645v12.28h-16.39z">
      </path>
      <path
        d="M44.528 21.848V29c0 .357.29.646.647.646.358 0 .647-.29.647-.645v-7.796c0-.357-.29-.645-.647-.645H27.49c-.357 0-.646.287-.646.644V29c0 .357.29.646.647.646.358 0 .648-.29.648-.645V21.85h16.39zM34.377 45.94h3.912c.357 0 .646-.288.646-.644 0-.356-.29-.645-.647-.645h-3.913c-.357 0-.647.29-.647.646 0 .356.29.645.647.645z">
      </path>
    </g>
  </symbol>
  <symbol xmlns="http://www.w3.org/2000/svg" viewBox="0 0 80 70" id="drycleaning">
    <g fill="none" fill-rule="evenodd">
      <path fill="#20A052" d="M15 30l7 23h35l8-26h-7l-4 2-4 2-10-4-9 5-5-4-7-1z"></path>
      <path fill="#222" fill-rule="nonzero" d="M57 51l9-36 4 1-10 39H20L10 16l4-1 9 36z"></path>
      <path fill="#222" fill-rule="nonzero"
        d="M64.332 31.61a8.807 8.807 0 0 1-1.534-1.22 4.78 4.78 0 0 0-6.74 0 8.78 8.78 0 0 1-12.379 0 4.78 4.78 0 0 0-6.74 0 8.78 8.78 0 0 1-12.38 0 4.78 4.78 0 0 0-6.739 0L15 27.554a8.78 8.78 0 0 1 12.38 0 4.78 4.78 0 0 0 6.74 0 8.78 8.78 0 0 1 12.38 0 4.78 4.78 0 0 0 6.739 0 8.78 8.78 0 0 1 12.307-.072l-1.214 4.128z">
      </path>
    </g>
  </symbol>
  <symbol width="39" height="53" viewBox="0 0 39 53" xmlns="http://www.w3.org/2000/svg" id="flatiron">
    <g fill="#FFF" fill-rule="evenodd">
      <path
        d="M4.42 45c-.042 0-.087-.004-.13-.013l-3.746-.76c-.357-.073-.594-.42-.535-.787L6.89.577c.03-.2.148-.374.318-.478.17-.106.376-.128.563-.065l3.77 1.288c.353.12.544.51.425.87-.12.363-.502.555-.856.436L8.094 1.597 1.448 43.006l3.105.63c.366.075.603.437.53.81-.064.328-.346.554-.662.554">
      </path>
      <path
        d="M13.228 51.617h17.02c.28-1.58 1.056-5.99 1.297-7.512.433-2.728.994-6.306 1.72-10.988 1.486-9.59-1.723-17.67-9.538-24.017-4.7-3.816-9.75-5.828-11.622-6.493L5.438 43.97l7.79 7.647zM30.833 53h-17.89c-.183 0-.36-.072-.49-.2l-8.246-8.095c-.16-.157-.234-.38-.198-.6L10.86 1.58c.032-.196.147-.37.317-.476.168-.106.376-.134.567-.077.272.08 6.726 2.03 12.824 6.97 5.673 4.594 12.024 12.716 10.07 25.328-.727 4.684-1.288 8.264-1.72 10.993-.298 1.873-1.392 8.046-1.403 8.11-.058.33-.347.57-.684.57z">
      </path>
      <path
        d="M13.227 51.617h17.02c.28-1.58 1.055-5.99 1.296-7.512.37-2.326.83-5.27 1.41-8.992l.31-1.996c.156-1.01.26-2.02.312-2.998.446-8.632-3.146-15.922-10.675-21.67-4.457-3.403-9.033-5.22-10.796-5.843L5.438 43.97l7.79 7.647zM30.83 53H12.942c-.183 0-.358-.072-.488-.2l-8.247-8.095c-.16-.157-.234-.38-.198-.6L10.86 1.58c.033-.196.148-.37.318-.476.17-.106.377-.134.568-.077.25.073 6.147 1.855 12 6.323 7.803 5.957 11.68 13.853 11.217 22.837-.053 1.024-.163 2.08-.327 3.138l-.31 1.996c-.578 3.723-1.04 6.67-1.41 8.997-.297 1.873-1.39 8.046-1.4 8.11-.06.33-.348.57-.686.57z">
      </path>
      <path
        d="M21.443 47.58l4.765.035c.332-2.28 1.55-10.634 2.36-16.068.654-4.384-2.128-6.83-3.54-7.77l-3.585 23.802zM26.78 49h-.004l-6.115-.047c-.193 0-.376-.09-.5-.243-.127-.153-.182-.355-.152-.553l3.85-25.573c.032-.212.157-.396.338-.5.182-.102.4-.11.588-.026.062.028 6.12 2.873 5.1 9.7-.94 6.307-2.43 16.552-2.445 16.655-.05.338-.33.587-.66.587z">
      </path>
      <path
        d="M21.443 47.58l4.765.035c.332-2.28 1.55-10.634 2.36-16.068.654-4.384-2.128-6.83-3.54-7.77l-3.585 23.802zM26.78 49h-.004l-6.115-.047c-.193 0-.376-.09-.5-.243-.127-.153-.182-.355-.152-.553l3.85-25.573c.032-.212.157-.396.338-.5.182-.102.4-.11.588-.026.062.028 6.12 2.873 5.1 9.7-.94 6.307-2.43 16.552-2.445 16.655-.05.338-.33.587-.66.587zM16.885 49c-.05 0-.1-.003-.152-.01-.48-.066-.803-.426-.72-.805l1.232-5.608c.083-.38.542-.63 1.022-.567.48.066.803.426.72.805l-1.232 5.608c-.074.338-.448.577-.87.577M37.232 36c-.04 0-.083-.003-.125-.008l-4.423-.586c-.44-.058-.743-.41-.674-.785.07-.375.482-.63.922-.573l3.632.48.7-3.626-3.855-.533c-.442-.06-.74-.414-.67-.79.073-.374.484-.632.928-.567l4.654.644c.212.03.4.13.526.277.125.15.176.334.14.514l-.96 4.98c-.065.337-.407.576-.796.576">
      </path>
    </g>
  </symbol>
  <symbol xmlns="http://www.w3.org/2000/svg" width="27" height="30" id="g">
    <defs>
      <linearGradient id="a" x1="91.476%" x2="-38.55%" y1="4.948%" y2="71.907%">
        <stop offset="0%" stop-color="#00A0FF"></stop>
        <stop offset="1%" stop-color="#00A1FF"></stop>
        <stop offset="26%" stop-color="#00BEFF"></stop>
        <stop offset="51%" stop-color="#00D2FF"></stop>
        <stop offset="76%" stop-color="#00DFFF"></stop>
        <stop offset="100%" stop-color="#00E3FF"></stop>
      </linearGradient>
      <linearGradient id="b" x1="107.685%" x2="-130.64%" y1="50%" y2="50%">
        <stop offset="0%" stop-color="#FFE000"></stop>
        <stop offset="41%" stop-color="#FFBD00"></stop>
        <stop offset="78%" stop-color="orange"></stop>
        <stop offset="100%" stop-color="#FF9C00"></stop>
      </linearGradient>
      <linearGradient id="c" x1="86.219%" x2="-50.15%" y1="17.877%" y2="194.703%">
        <stop offset="0%" stop-color="#FF3A44"></stop>
        <stop offset="100%" stop-color="#C31162"></stop>
      </linearGradient>
      <linearGradient id="d" x1="-18.754%" x2="42.121%" y1="-54.052%" y2="24.917%">
        <stop offset="0%" stop-color="#32A071"></stop>
        <stop offset="7%" stop-color="#2DA771"></stop>
        <stop offset="48%" stop-color="#15CF74"></stop>
        <stop offset="80%" stop-color="#06E775"></stop>
        <stop offset="100%" stop-color="#00F076"></stop>
      </linearGradient>
    </defs>
    <g fill="none" fill-rule="nonzero">
      <path fill="url(#a)"
        d="M.599.82a2.192 2.192 0 0 0-.512 1.572v24.821c-.035.57.156 1.133.535 1.571l.081.079 14.382-13.892v-.325L.68.742.599.821z">
      </path>
      <path fill="url(#b)"
        d="M19.852 19.605l-4.767-4.634v-.325L19.852 10l.104.056 5.709 3.13c1.628.887 1.628 2.346 0 3.244l-5.685 3.12-.128.055z">
      </path>
      <path fill="url(#c)" d="M19.991 19.55l-4.906-4.747L.599 28.784c.684.581 1.7.61 2.418.068l16.986-9.314"></path>
      <path fill="url(#d)" d="M19.991 10.067L3.005.754A1.948 1.948 0 0 0 .587.82l14.498 13.982 4.906-4.736z"></path>
    </g>
  </symbol>
</svg>