<svg xmlns="http://www.w3.org/2000/svg" width="24" height="30">
                                <path fill="#FFF" fill-rule="evenodd" d="M13.25 3C15.167.5 17.833.5 17.833.5s.417 2.333-1.5 4.667C14.25 7.5 12 7.167 12 7.167S11.5 5.25 13.25 3zm-1.083 5.833c1 0 2.833-1.333 5.166-1.333C21.417 7.5 23 10.417 23 10.417s-3.167 1.583-3.167 5.5c0 4.416 3.917 5.916 3.917 5.916s-2.75 7.75-6.417 7.75c-1.666 0-3-1.166-4.833-1.166-1.833 0-3.667 1.166-4.833 1.166C4.25 29.583 0 22.25 0 16.333 0 10.5 3.583 7.5 7 7.5c2.333 0 4.083 1.333 5.167 1.333z"></path>
                            </svg>