<svg viewBox="0 0 22 16" xmlns="http://www.w3.org/2000/svg" width="22" height="16">
                                <path fill="#A6A6A6" fill-rule="nonzero" d="M21.18 8.559c0-.932-.722-1.682-1.619-1.682l-1.118-.182-1.916-2.997c-.027-.024-.05-.08-.077-.103a1.632 1.632 0 0 0-1.32-.698h-3.634V.96c0-.53-.379-.96-.848-.96h-9.8C.378 0 0 .43 0 .96v12.225c0 .544.424.956.92.956h1.32C2.539 15.227 3.486 16 4.63 16s2.092-.8 2.39-1.86h8.137C15.454 15.228 16.4 16 17.546 16c1.145 0 2.092-.8 2.39-1.86h1.144c.523 0 .92-.44.92-.955v-1.212c0-.497-.374-.909-.82-.96V8.559zM4.63 14.707c-.699 0-1.244-.594-1.244-1.292 0-.698.572-1.293 1.244-1.293.699 0 1.244.595 1.244 1.293s-.545 1.292-1.244 1.292zm8.57-7.914a.119.119 0 0 1-.117-.122V4.297c0-.065.05-.122.117-.122h1.975c.04 0 .076.02.094.052L16.807 6.6c.05.08-.005.187-.095.187H13.2v.005zm4.346 7.914c-.699 0-1.244-.594-1.244-1.292 0-.698.572-1.293 1.244-1.293.699 0 1.244.595 1.244 1.293s-.572 1.292-1.244 1.292z">
                                </path>
                            </svg>