<svg width="50" height="50" viewBox="0 0 50 50" xmlns="http://www.w3.org/2000/svg">
                            <g fill-rule="nonzero" fill="#FFF">
                                <path d="M45.175 36.156h1.136c1.95 0 3.517-1.702 3.517-3.76V3.934c0-2.057-1.567-3.76-3.515-3.76H3.516C1.568.175 0 1.878 0 3.935v28.462c0 2.058 1.568 3.76 3.516 3.76H27.49c.358 0 .648-.29.648-.645 0-.355-.29-.644-.647-.644H3.517c-1.208 0-2.222-1.1-2.222-2.47V3.934c0-1.368 1.014-2.47 2.222-2.47h42.796c1.207 0 2.22 1.102 2.22 2.47v28.462c0 1.37-1.013 2.47-2.22 2.47h-1.137c-.357 0-.647.29-.647.645 0 .357.29.646.647.646z"></path>
                                <path d="M45.175 29.646h4.005c.358 0 .647-.288.647-.645 0-.355-.29-.643-.647-.643h-4.005c-.357 0-.647.288-.647.644 0 .358.29.646.647.646zM.647 29.646h26.847c.357 0 .647-.288.647-.645 0-.355-.29-.643-.646-.643H.647C.29 28.357 0 28.645 0 29c0 .358.29.646.647.646zM13.85 39.27h2.585c1.74 0 3.177-1.358 3.464-3.114h7.59c.358 0 .648-.29.648-.645 0-.355-.29-.644-.647-.644h-8.186c-.357 0-.647.29-.647.645 0 1.37-1.014 2.47-2.222 2.47h-3.23c-.36 0-.648.29-.648.645v3.3c0 .356.29.645.647.645H27.49c.358 0 .648-.29.648-.645 0-.356-.29-.645-.647-.645H13.85v-2.01z"></path>
                                <path d="M45.823 46.066c0 2.057-1.568 3.76-3.516 3.76H30.36c-1.948 0-3.516-1.703-3.516-3.76V20.21c0-2.056 1.568-3.758 3.516-3.758h11.947c1.948 0 3.516 1.702 3.516 3.76v25.854zm-1.295 0V20.21c0-1.367-1.014-2.468-2.22-2.468H30.36c-1.208 0-2.222 1.1-2.222 2.47v25.854c0 1.368 1.014 2.47 2.222 2.47h11.947c1.207 0 2.22-1.1 2.22-2.47z"></path>
                                <path d="M28.138 41.28V29c0-.355-.29-.644-.647-.644-.357 0-.646.29-.646.645v12.925c0 .357.29.645.647.645h17.685c.358 0 .648-.288.648-.645V29c0-.355-.29-.644-.648-.644-.357 0-.647.29-.647.645v12.28h-16.39z"></path>
                                <path d="M44.528 21.848V29c0 .357.29.646.647.646.358 0 .647-.29.647-.645v-7.796c0-.357-.29-.645-.647-.645H27.49c-.357 0-.646.287-.646.644V29c0 .357.29.646.647.646.358 0 .648-.29.648-.645V21.85h16.39zM34.377 45.94h3.912c.357 0 .646-.288.646-.644 0-.356-.29-.645-.647-.645h-3.913c-.357 0-.647.29-.647.646 0 .356.29.645.647.645z"></path>
                            </g>
                        </svg>