<svg xmlns="http://www.w3.org/2000/svg" viewBox="0 0 80 70">
                                    <g fill="none" fill-rule="evenodd">
                                        <path fill="#20A052" d="M15 30l7 23h35l8-26h-7l-4 2-4 2-10-4-9 5-5-4-7-1z"></path>
                                        <path fill="#222" fill-rule="nonzero" d="M57 51l9-36 4 1-10 39H20L10 16l4-1 9 36z"></path>
                                        <path fill="#222" fill-rule="nonzero" d="M64.332 31.61a8.807 8.807 0 0 1-1.534-1.22 4.78 4.78 0 0 0-6.74 0 8.78 8.78 0 0 1-12.379 0 4.78 4.78 0 0 0-6.74 0 8.78 8.78 0 0 1-12.38 0 4.78 4.78 0 0 0-6.739 0L15 27.554a8.78 8.78 0 0 1 12.38 0 4.78 4.78 0 0 0 6.74 0 8.78 8.78 0 0 1 12.38 0 4.78 4.78 0 0 0 6.739 0 8.78 8.78 0 0 1 12.307-.072l-1.214 4.128z"></path>
                                    </g>
                                </svg>