<svg width="39" height="53" viewBox="0 0 39 53" xmlns="http://www.w3.org/2000/svg">
                            <g fill="#FFF" fill-rule="evenodd">
                                <path d="M4.42 45c-.042 0-.087-.004-.13-.013l-3.746-.76c-.357-.073-.594-.42-.535-.787L6.89.577c.03-.2.148-.374.318-.478.17-.106.376-.128.563-.065l3.77 1.288c.353.12.544.51.425.87-.12.363-.502.555-.856.436L8.094 1.597 1.448 43.006l3.105.63c.366.075.603.437.53.81-.064.328-.346.554-.662.554"></path>
                                <path d="M13.228 51.617h17.02c.28-1.58 1.056-5.99 1.297-7.512.433-2.728.994-6.306 1.72-10.988 1.486-9.59-1.723-17.67-9.538-24.017-4.7-3.816-9.75-5.828-11.622-6.493L5.438 43.97l7.79 7.647zM30.833 53h-17.89c-.183 0-.36-.072-.49-.2l-8.246-8.095c-.16-.157-.234-.38-.198-.6L10.86 1.58c.032-.196.147-.37.317-.476.168-.106.376-.134.567-.077.272.08 6.726 2.03 12.824 6.97 5.673 4.594 12.024 12.716 10.07 25.328-.727 4.684-1.288 8.264-1.72 10.993-.298 1.873-1.392 8.046-1.403 8.11-.058.33-.347.57-.684.57z"></path>
                                <path d="M13.227 51.617h17.02c.28-1.58 1.055-5.99 1.296-7.512.37-2.326.83-5.27 1.41-8.992l.31-1.996c.156-1.01.26-2.02.312-2.998.446-8.632-3.146-15.922-10.675-21.67-4.457-3.403-9.033-5.22-10.796-5.843L5.438 43.97l7.79 7.647zM30.83 53H12.942c-.183 0-.358-.072-.488-.2l-8.247-8.095c-.16-.157-.234-.38-.198-.6L10.86 1.58c.033-.196.148-.37.318-.476.17-.106.377-.134.568-.077.25.073 6.147 1.855 12 6.323 7.803 5.957 11.68 13.853 11.217 22.837-.053 1.024-.163 2.08-.327 3.138l-.31 1.996c-.578 3.723-1.04 6.67-1.41 8.997-.297 1.873-1.39 8.046-1.4 8.11-.06.33-.348.57-.686.57z"></path>
                                <path d="M21.443 47.58l4.765.035c.332-2.28 1.55-10.634 2.36-16.068.654-4.384-2.128-6.83-3.54-7.77l-3.585 23.802zM26.78 49h-.004l-6.115-.047c-.193 0-.376-.09-.5-.243-.127-.153-.182-.355-.152-.553l3.85-25.573c.032-.212.157-.396.338-.5.182-.102.4-.11.588-.026.062.028 6.12 2.873 5.1 9.7-.94 6.307-2.43 16.552-2.445 16.655-.05.338-.33.587-.66.587z"></path>
                                <path d="M21.443 47.58l4.765.035c.332-2.28 1.55-10.634 2.36-16.068.654-4.384-2.128-6.83-3.54-7.77l-3.585 23.802zM26.78 49h-.004l-6.115-.047c-.193 0-.376-.09-.5-.243-.127-.153-.182-.355-.152-.553l3.85-25.573c.032-.212.157-.396.338-.5.182-.102.4-.11.588-.026.062.028 6.12 2.873 5.1 9.7-.94 6.307-2.43 16.552-2.445 16.655-.05.338-.33.587-.66.587zM16.885 49c-.05 0-.1-.003-.152-.01-.48-.066-.803-.426-.72-.805l1.232-5.608c.083-.38.542-.63 1.022-.567.48.066.803.426.72.805l-1.232 5.608c-.074.338-.448.577-.87.577M37.232 36c-.04 0-.083-.003-.125-.008l-4.423-.586c-.44-.058-.743-.41-.674-.785.07-.375.482-.63.922-.573l3.632.48.7-3.626-3.855-.533c-.442-.06-.74-.414-.67-.79.073-.374.484-.632.928-.567l4.654.644c.212.03.4.13.526.277.125.15.176.334.14.514l-.96 4.98c-.065.337-.407.576-.796.576"></path>
                            </g>
                        </svg>