<svg width="42" height="57" viewBox="0 0 42 57" xmlns="http://www.w3.org/2000/svg">
                            <g fill="#FFF" fill-rule="evenodd">
                                <path d="M1.474 55.52H40.49V1.48H1.475v54.04zM41.228 57H.738C.33 57 0 56.668 0 56.26V.74C0 .332.33 0 .737 0h40.49c.408 0 .738.332.738.74v55.52c0 .408-.33.74-.737.74z"></path>
                                <path d="M8.142 48.99h18.603V23.384c0-.614-.435-1.242-1.196-1.722l-8.107-5.11-8.127 5.126c-.746.47-1.174 1.084-1.174 1.685V48.99zm19.34 1.48H7.405c-.407 0-.737-.332-.737-.74V23.364c0-1.122.68-2.193 1.865-2.94l8.52-5.373c.238-.152.543-.152.782 0l8.498 5.358c1.2.756 1.886 1.84 1.886 2.975V49.73c0 .408-.33.74-.738.74z"></path>
                                <path d="M17.444 16.42c-.407 0-.737-.333-.737-.742v-2.306c0-.41.33-.74.737-.74.038 0 .076.003.113.008 1.434-.06 2.582-1.25 2.582-2.706 0-1.493-1.21-2.708-2.696-2.708-1.486 0-2.695 1.215-2.695 2.708 0 .41-.33.74-.738.74-.407 0-.736-.33-.736-.74 0-2.31 1.87-4.188 4.168-4.188s4.17 1.88 4.17 4.188c0 2.058-1.485 3.773-3.434 4.124v1.62c0 .41-.33.74-.736.74"></path>
                                <path d="M34.347 50.47h-6.865c-.407 0-.737-.332-.737-.74 0-.41.33-.74.737-.74h6.128V23.384c0-.614-.436-1.24-1.197-1.722l-8.497-5.357c-.215-.136-.345-.373-.345-.627v-2.297c0-.41.33-.74.738-.74 1.486 0 2.695-1.215 2.695-2.71 0-1.492-1.21-2.707-2.695-2.707-1.486 0-2.695 1.215-2.695 2.708 0 .41-.33.74-.737.74s-.736-.33-.736-.74c0-2.31 1.87-4.188 4.168-4.188s4.17 1.88 4.17 4.188c0 2.058-1.485 3.773-3.434 4.124v1.21l8.153 5.14c1.2.76 1.887 1.843 1.887 2.977V49.73c0 .408-.33.74-.737.74M14.22 9.493H.738C.33 9.493 0 9.16 0 8.753c0-.41.33-.74.737-.74H14.22c.408 0 .738.33.738.74 0 .408-.33.74-.737.74"></path>
                                <path d="M41.228 9.493H27.53c-.406 0-.736-.332-.736-.74 0-.41.33-.74.737-.74H41.23c.407 0 .737.33.737.74 0 .408-.33.74-.737.74"></path>
                            </g>
                        </svg>