<svg xmlns="http://www.w3.org/2000/svg" width="22" height="22">
                                <path fill="#A6A6A6" fill-rule="nonzero" d="M11 22C4.925 22 0 17.075 0 11S4.925 0 11 0s11 4.925 11 11-4.925 11-11 11zm2.493-6.042c-.55.255-2.07 1.255-1.769-.528.093-.636.7-3.726.916-4.947.172-.844.32-1.587-.536-1.587-.954 0-3.558-.01-3.727.031-.464.066-.517.586-.063.778.397.157 1.268-.064 1.168.778-.082.694-.752 4.501-.884 5.351-.008.06-.298 1.929 2.779 1.929 2.44 0 2.98-2.206 2.116-1.805zm-2.171-8.131c.947 0 1.737-.778 1.737-1.743 0-.995-.758-1.773-1.737-1.773-.98 0-1.769.778-1.769 1.742 0 .965.79 1.774 1.769 1.774z">
                                </path>
                            </svg>