<svg xmlns="http://www.w3.org/2000/svg" xmlns:xlink="http://www.w3.org/1999/xlink" width="360" height="480" viewBox="0 0 275 395">
                <defs>
                    <path id="a" d="M0 0h320v450H0z"></path>
                </defs>
                <g fill="none" fill-rule="evenodd" transform="translate(-19 -52)">
                    <mask id="b" fill="#fff">
                        <use xlink:href="#a"></use>
                    </mask>
                    <g mask="url(#b)">
                        <path fill="#EBEBEB" d="M101.422 76.831s-62.547-10.52-62.547 36.02c0 46.542 3.92 161.378.89 228.781-3.029 67.404.713 204.53.713 204.53s-13.72 34.594 56.846 37.09c70.566 2.497 164.831 2.497 176.77-11.59 11.94-14.088 13.187-54.744 11.94-90.764-1.247-36.02 1.426-112.162 1.782-136.235.357-24.072 2.495-156.562 0-172.254-2.495-15.691-1.782-65.442-1.782-65.442s5.346-27.105-32.254-26.57c0 0-29.937-1.937-43.302 13.374-13.364 15.313-92.484 12.304-97.474.358-4.988-11.948-11.582-17.298-11.582-17.298"></path>
                        <path fill="#FFF" d="M280 287.714v190.058c-10.136-.073-20.283-.857-30.394-2.983-5.462-1.15-18.112 1.758-23.25-4.436-5.902-7.113-3.468-16.246-5.07-35.035-1.963-23.008-1.672-47.51-1.427-71.04.003-.323.428-41.127 5.28-57.75 3.293-11.282 5.837-17.772 43.055-18.81.04 0 5.232-.003 11.806-.004z"></path>
                        <path fill="#D9D9D9" d="M284 435.385c-8.889.354-18.42.86-27.418.816-3.608-.017-17.119.144-16.89-4.736.251-5.349 2.431-6.138 7.153-6.262 6.622-.174 13.875-.93 20.937-1.004 5.403-.056 10.811-.088 16.218-.082v11.268zm0 22.132c-16.13.032-13.786-.019-14.015-.02-.108 0-21.148-.442-21.901-.49-3.265-.212-6.347-.412-7.179-7.8-.13-1.16-.652-2.46 2.476-3.275 5.364-1.397 17.594-.863 25.803-1.025 7.106-.141 9.95-.265 14.816-.272v12.882zm-2-52.82l-1.987.113c-3.192.182-7.275 1.056-12.483-1.057-1.32-.535-2.721-.864-4.065-1.343-1.302-.463-1.453-.732-1.335-2.12.175-2.073-.423-1.17-.562-2.885-.988-12.155-1.77-16.522-2.165-19.407-.507-3.693.14 1.633-1.56-10.675-.55-3.976-1.178-7.935-2.596-11.72-.12-.321 4.804-13.767 4.84-13.924.824-3.525 3.343-10.41 2.774-16.484-.326-3.481-1.226-12.687-1.378-13.269 3.098-.864 8.226-2.202 10.744-3.486.74-.377 1.425-.584 1.91-.143 1.454 1.321-8.577 15.082 7.863 32.657v63.743z"></path>
                        <path fill="#FFF" d="M171.167 296.255c-10.417-.484-20.19-1.036-30.63-1.036-.111 0-51.046 1.454-51.154 1.467-24.127.398-22.178 8.856-21.83 15.974 2.302 47.141.494 146.927 1.384 151.532 1.435 7.43 3.479 11.676 10.49 14.204 3.006 1.082 27.16 1.985 36.229 1.867 4.298-.056 11.457-.46 17.183-.594 17.701-.413 21.32.97 44.876-.611 8.487-.57 19.517 1.145 21.697-8.725 1.141-2.066 1.337-146.39 1.443-148.637.927-19.744-2.135-24.159-29.688-25.44"></path>
                        <path fill="#D9D9D9" d="M179.252 433.07c1.55 1.424 2.15 7.567-2.79 8.893-3.246.87-8.872.687-13.372.75-5.926.084-11.86.144-17.794.317-20.402.59-29.667.536-54.891-.49-5.468-.222-6.696-1.777-7.758-3.724-3.697-6.786 1.392-7.22 2.005-7.351 4.079-.868 9.787-.998 24.127-.98 22.222-.353 26.71-.317 26.817-.317 36.79 0 41.608 1.02 43.656 2.902zM84.776 462.66c-2.703-.08-6.94-6.251.196-9.019 2.163-.839.952-1.242 4.3-1.407 2.302-.113 9.294-.157 11.652-.183 8.825-.503 17.78-.78 26.742-.903.795-.012 16.086-.96 26.493 2.886 1.651.61 4.318 6.874-6.808 9.108-3.209.644-7.225.722-10.941.741-18.29.096-18.641-1.13-24.837-.689-9.93.704-23.504-.434-26.797-.534zm5.4-130.814c3.323-3.9 1.732-4.724 4.047-6.713.496-.426 1.994-3.188 2.723-3.704 1.02-.721 4.77-2.614 10.184-3.13 3.457-.33 7.259-1.918 9.745-3.73 2.137-1.558 1.97-3.846 6.73-4.773 3.708-.723 15.498-2.071 17.346-1.648 1.724.395 3.025 2.708 4.693 3.513 7.953 3.833 17.999 2.503 23.47 8.063 4.382 4.455 7.38 9.877 10.957 14.598 1.48 1.956 3.282 3.61 4.587 5.79-2.714 6.622-11.487 16.254-14.526 17.159-1.014-1.584-5.882-8.327-6.962-8.165-.28 5.165.655 10.614 1.096 15.65.49 5.599.033 11.226.523 16.707.118 1.33.646 7.549.01 13.61-.306 2.935.573 9.607.593 9.704.358 1.651 1.55 3.064 1.237 4.696-2.521 2.583-12.315 4.797-12.79 4.896-11.135 2.317-20.634-2.133-25.475-1.987-3.585.11-6.969.908-10.282.864-3.178-.043-7.039-2.51-14.539-2.051 1.41-4.21.489-10.86.5-16.96.006-3.075.345-6.27.213-9.302-.462-10.583-1.918-16.177-1.982-17.057-.364-5.002 1.398-9.33.821-14.288.013.108-6.684 6.918-6.792 6.962-1.086.446-15.158-12.744-14.93-14.01.018-.096 6.24-11.688 8.803-14.694z"></path>
                        <path fill="#20A052" d="M158.434 230.648c-10.438-1.596-21.3-1.5-31.829-1.258-41.207.947-26.443.304-36.78.673-7.703.275-17.454.426-21.423 8.403-1.12 2.253-2.623 7.164-.788 13.179 3.943 12.929 23.903 10.965 24.286 10.966 16.167.045 32.487.897 48.68.066 23.699-1.217 31.352-4.206 32.021-14.665.371-5.788-2.675-15.606-14.167-17.364"></path>
                        <path fill="#222" d="M253.573 167.535c-.178 4.835-5.328 4.438-9.935 4.438-11.65-.227-31.115-1.96-38.71-2.076-.756-.012-25.68-.112-25.684-.112-7.598-.257-7.841-.196-24.284.29-41.884 1.24-28.312.839-39.761 1.053-20.16.375 2.857-.082-25.956.279-18.716.234-14.876.378-21.475-.47-1.868-.24-.948-7.78.467-7.78 8.473.004 5.545.074 9.326-.18 10.25-.69 12.674-.608 23.019-.796 35.155-.639 6.044-.09 39.342-.95 38.725-1.001 32.465-.669 44.767-.65 21.379.036 17.085-.297 46.778 1.503 11.397.69 11.535.152 19.59 1.706 1.332.257 2.596 1.57 2.516 3.745zm-41.892 21.67c13.566.28 14.163 2.166 14.174 5.09.017 3.957-1.805 4.654-4.236 4.575-4.732-.153-7.752-.044-10.062-.189-7.222-.452-3.785.623-23.197-.42-10.189-.546-28.673-.28-28.781-.284-24.708-.8-21.376-.67-21.653-.659-2.81.108-5.62.263-8.43.354-38.636 1.247-30.921 1.05-33.702 1.084-.107.001-10.963-.116-27.532.43-.825.027-1.504-.695-1.504-1.581 0-3.733-.541-6.783 2.13-7.001l.063-.006c9.138-.74 11.274-.669 20.527-.907 1.97-.051 3.942-.135 5.913-.172 17.302-.327 1.208-.008 29.166-.97 3.251-.113 6.502-.172 9.753-.284 6.07-.211-14.591.266 27.276.523.278.002 19.888-.299 23.767.02 9.199.754 12.518.113 26.328.397zM85.198 103.032c2.865 1.176 1.806 4.184-.763 2.81-2.719-1.451-5.58-2.13-8.646-1.919-2.781.19-5.545.559-8.177 1.506-1.281.46-2.437 1.263-3.718 1.72-1.223.436-2.895-1.04-1.698-2.06a11.834 11.834 0 0 1 2.37-1.588c1.03-.512 10.995-4.423 20.632-.47zm-1.99 4.372c2.095.892 1.223 3.382-.393 2.603-4.126-1.988-10.322-1.92-14.805.128-1.539.703-2.725 1.509-3.27.814-.562-.713-.317-1.968.494-2.443 7.31-4.277 15.165-2.3 17.973-1.102zm-3.138 4.275c2.67.878.953 2.887-.212 2.76-2.762-.3-5.839-3.205-10.457.26-1.267.95-2.88-.599-1.485-1.845 1.335-1.192 5.39-3.4 12.154-1.175zm-8.521 6.795c.004-1.761 1.568-3.532 3.217-3.48 1.359.043 3.2 1.37 3.117 3.478-.062 1.548-1.692 3.066-3.43 3.058-1.478-.008-2.907-1.512-2.904-3.056z"></path>
                        <path fill="#222" d="M30.53 529.562c-4.258-58.575-2.695-39.316-3.464-47.047-1.26-12.664-1.827-15.612-.312-37.126.72-10.238.528-19.696.528-28.844 0-17.545.735-24.871 1.155-29.494 1.795-18.39.38-14.551.914-19.335.403-3.614.898-18.433 1.85-28.579 1.701-18.142-.83-21.728-.453-28.23 1.308-22.634-1.373-68.744-1.373-68.824-.106-8.487-.578-31.06-.024-46.805.409-11.895.842-24.198.553-35.78.005-.079-3.165-29.835-2.116-52.293 1.585-33.958 39.65-39.718 45.901-39.475 20.614.798 34.588-.568 41.199-.268 31.761 2.27 42.098 1.936 48.13 1.47 13.035-1.008 15.573-.082 21.447-.418 28.426-1.629 36.353 1.936 56.314 1.637 28.268-.425 29.751 1.095 35.316 5.563 16.299 13.08 13.82 35.141 13.881 37.196-.235 25.27-2.336 19.477-1.035 40.884.409 6.693 2.62 17.793 2.62 17.793.361 5.61.218 11.34 0 17.672-.507 12.847.964 12.764 1.036 17.913.238 17.328-1.342 21.814.048 27.809.02.085 2.041 43.811 2.042 43.892.907 31.764-3.782 35.47-2.62 53.38 1.38 21.27-1.828 19.422-.505 51.356 0 6.58.627 13.73.335 28.41-.5 25.019.554 30.488-.864 42.592-.009.081-1.252 10.817-.865 22.272.335 9.956-1.188 18.042-2.164 50.296-.489 14.5-.725 23.87-.578 31.18.072 3.419.22 7.555-1.647 10.234-2.227 3.193-2.178 11.46-18.145 20.745-2.573 1.496-.112 2.149-4.999 3.547-1.381.396-6.224-.508-9.906 1.54-8.809 4.902-18.189-.174-24.189-.962-33.03-4.338-121.58-1.322-151.529-3.354-7.323-.499-24.079-2.409-29.062-3.769a9.405 9.405 0 0 1-3.44-1.756c-7.713-6.222-9.888-16.423-10.234-16.768-.27-.27-3.069-10.915-2.857-15.14.118-2.54-.192-15.25-.914-23.09l.024-.023.002-.001zM159.41 86.4c-13.165-1.971-11.538 7.7-6.587 9.15 10.861 3.179 31.996-1.166 43.124.9 9.84 1.827 11.098-11.205-8.378-10.435-6.883.273-14.717 2.398-28.158.385zm-37.028-1.123c-3.054 3.732-2.957 9.246-.289 10.594 2.645 1.348 8.007 3.202 10.147.24 2.164-2.96 2.14-8.377-.289-10.545-1.804-1.637-6.515-3.997-9.57-.289zm156.652 171.565c-1.81-26.734 2.753-40.081 0-58.627 2.648-17.364-1.825-21.839-2.091-33.515-.363-15.952.193-46.379-.37-63.82a8.796 8.796 0 0 0-7.93-8.465c-11.653-1.157-35.367-4.179-40.027-2.137-6.3 2.758-5.241 21.421-32.2 20.723-21.379-.556-63.687-.354-77.428-.354-18.921 0-15.318-21.06-26.578-20.938-4.552.049-21.026-.215-34.033 1.582-7.112.984-12.337 11.979-12.102 19.16.683 20.76 1.717 58.359.075 60.003-.08.076 2.015 10.488.53 23.043-.01.079-4.715 155.46-4.715 155.511.33 15.95-.72 40.435-1.057 53.91-.502 20.035-.58 42.65 2.622 80.126.31 6.358 2.932 70.092 1.562 76.264-1.915 8.616 2.1 10.093 5.009 10.814 14.728 3.659 26.938 7.288 47.063 7.288 15.245 0 31.235 1.589 44.965-.53 16.746-2.565 20.637.952 45.98-.485.081-.004 12.646-.53 68.507-.53 5.27 0 20.002-10.732 20.016-30.333.013-18.123-.614-47.085-1.452-47.823-1.418-9.318.192-18.299.529-27.762.76-22.189-4.624-55.412-1.057-66.5 7.334-22.806 3.9-53.207 3.654-86.388-.087-11.78.528-60.217.528-60.217zM189.131 61.94c24.446 7.943 85.928-17.577 102.427 22.192 3.314 7.991 5.087 25.06 4.574 52.302-.162 8.602.578 46.06.19 56.581-.383 10.498 3.056 41.317 3.273 50.562.24 9.221 1.409 45.433.688 55.858-.745 10.45.49 31.3-.016 36.934-1.163 12.988 2.544 33.249.363 84.558-1.767 41.523-6.186 54.277-3.537 88.58.929 12.008 1.34 52.42-7.454 67.743-4.689 7.827-22.237 20.023-31.086 22.67-7.5 2.262-19.366 2-23.454 1.35-27.872-4.597-56.946-4.17-62.583-4.099-26.252.327-54.165.205-67.325-.638-13.899-.89-28.087-.927-35.349-.35-49.27 3.933-49.02-49.246-46.119-61.348.577-2.408.506-5.2-.191-11.726-.698-6.524-.45-17.6-.29-25.883.154-7.98-1.546-20.76-.408-34.43.721-8.907.768-32.43.673-40.305-.096-7.752.41-20.922.914-26.652.612-7.29-.098-1.763.985-26.749 2.257-48.293-1.45-48.732-.191-70.643.79-13.162-.771-41.347-.41-59.445.048-2.409-2.667-3.54-4.184-4.575-1.512-1.011-1.153-8.717-1.08-12.737.048-3.998.937-4.165 2.645-4.622 1.73-.482.456-8.523 1.034-12.28.577-3.756 1.25-9.872 1.322-12.833.196-6.057-4.087-2.312-5.242-7.2-.53-2.214-.191-10.304-.217-13.579 0-3.249 1.106-2.672 2.693-2.793 2.302-.176 1.325-21.553 2.574-27.712.139-.726-.313-1.284-.855-1.676-1.085-.788-1.76-2.016-1.988-3.336-.916-5.337-2.551-17.341.463-21.332.691-.915 1.12-1.995 1.078-3.142-.069-1.913-.073-5.554.195-12.456.53-13.627 15.15-26.702 31.38-34.55 17.586-8.544 49.846-1.566 94.112-1.566 20.252 0 34.73-2.477 40.396-.674v.001zm2.669 532.268c4.453.067 14.099 1.748 18.906.13 2-.672 6.754 1.25 9.916 1.482 6.642.38 11.98-.838 15.108 1.951 12.865 2.771 16.848-1.818 26.703-2.525a5.166 5.166 0 0 0 1.642-.379c26.284-11.196 27.22-36.404 27.168-38.939-.435-21.534 1.14-69.119 1.138-69.199-.549-23.641 2.502-32.052 3.93-74.132.835-24.678-1.52-27.728-.248-71.368.276-9.454.446-24.273.502-34.572.312-57.135-.347-69.8-.854-72.48-2.667-14.093-1.582-69.87-3.234-75.642-2.77-9.539.49-27.9-.096-45.72-.325-11.435-1.494-10.49-1.539-15.434-.073-8.2-5.103-15.91-5.936-17.234-2.37-3.765-9.895-10-14.214-11.49-3.914-1.349-13.99-1.21-16.52-1.132-24.51.423-58.612-1.505-58.694-1.517-4.688-.698-18.707-2.31-27.338-1.54-47.688 1.778-51.816-.096-64.898-.144-18.735-.072-24.823-.56-38.68 1.128-3.632.442-14.743 4.934-17.324 6.56-9.634 6.063-11.602 8.852-13.535 10.585-3.923 3.519-6.069 9.158-6.916 12.9-1.405 6.204-1.853 8.654-1.475 20.953.072 2.84-.758 12.273-.025 16.275.612 3.347 1.179 3.045 1.179 13.556 0 13.42.922 9.093 1.035 13.217.286 11.582-.548 23.831-.555 35.684-.02 35.633.545 44.793 1.075 63.91.256 9.228 1.1 26.747.512 35.576-.632 9.489-1.982 13.68 0 38.04.805 9.891-.441 18.075-.882 27.636-.488 10.627-.25 12.185-1.092 20.81a5.217 5.217 0 0 0-.024.428c-.161 16.478-1.542 24.972-1.344 40.886.095 7.898.048 31.492-.673 40.45-.832 9.99-.022 13.538.144 19.646.002.076 2.027 35.055 2.281 39.425.02.297.064.592.133.88.814 3.392 1.327 6.411 1.866 22.968.295 9.123-.247 8.388.12 11.197.307 2.337 1.472 2.846 2.092 7.56 1.476 10.367 4.014 14.633 7.441 18.1 4.598 4.651 10.114 7.95 12.7 7.843 5.142-.212 8.392 2.886 18.896 2.067 5.091-.397 12.81.747 26.796.183 8.912-.36 10.12 1.518 15.392 1.421 6.279-.21 7.413-2.321 56.964 0 7.807.366 15.195-.24 22.457 0z"></path>
                        <path fill="#FAE12E" d="M272.465 74.73c-8.372 0-15.162-5.375-15.162-12.007V55.03c0-1.634-1.665-2.96-3.728-2.96-2.062 0-3.728 1.326-3.728 2.96v7.693c0 6.632-6.79 12.008-15.162 12.008-2.063 0-3.737 1.322-3.737 2.953 0 1.633 1.674 2.956 3.737 2.956 8.373 0 15.162 5.377 15.162 12.004v7.7c0 1.634 1.666 2.953 3.728 2.953 2.063 0 3.728-1.319 3.728-2.953v-7.7c0-6.627 6.79-12.004 15.162-12.004 2.063 0 3.733-1.323 3.733-2.956 0-1.63-1.67-2.953-3.733-2.953"></path>
                    </g>
                </g>
            </svg>