<svg xmlns="http://www.w3.org/2000/svg" width="23" height="18">
                                <path fill="#20A052" fill-rule="evenodd" d="M10 2.5a2.5 2.5 0 1 0 5 0 2.5 2.5 0 0 0-5 0zm9.79 3.045c-.088-.175-.087-.3-.04-.335a.142.142 0 0 1 .083-.021c.072 0 .172.036.272.135.261.262.417.554.437.813-.339-.112-.619-.326-.753-.592M6.091 8.602a1.218 1.218 0 1 1 1.22-1.217c0 .672-.546 1.217-1.22 1.217m16.119-2.96a1.274 1.274 0 0 1-.803.542c-.002-.5-.246-1.023-.691-1.468-.426-.424-1.044-.51-1.47-.203-.319.228-.57.737-.229 1.417.212.423.604.762 1.082.96-.09.064-.196.125-.313.184a2.83 2.83 0 0 1-.78.25c-.621-1.264-1.744-2.346-3.186-3.11a3.46 3.46 0 0 1-3.178 2.097c-1.83 0-3.52-1.428-3.633-3.225-.18.017-.355.036-.528.059C7.4 2.447 5.585 1.588 3.577 1.72c.093.832.605 1.9 1.265 2.671C3.563 5.18 2.739 6.255 2.324 7.5a4.72 4.72 0 0 1-1.599.388.773.773 0 0 0-.723.825c.08 1.103.407 2.982 1.705 3.48.244.093.631.148 1.093.177.55.896 1.358 1.685 2.354 2.31-.167.831-.373 1.74-.627 2.587a.573.573 0 0 0 .552.734h2.417a.576.576 0 0 0 .54-.37c.19-.512.351-1.107.489-1.641.716.142 1.47.219 2.246.219.903 0 1.774-.103 2.594-.293-.106.425-.243.922-.371 1.35a.572.572 0 0 0 .551.735h2.418a.576.576 0 0 0 .54-.37c.43-1.16.738-2.45.912-3.713 1.327-1.156 2.132-2.66 2.132-4.307a5.07 5.07 0 0 0-.221-1.47c.278-.062.563-.155.846-.296.467-.233.762-.502.946-.762.744-.015 1.41-.366 1.81-.962a.43.43 0 1 0-.718-.478z">
                                </path>
                            </svg>