<svg xmlns="http://www.w3.org/2000/svg" viewBox="0 0 80 70">
                                    <g fill="none" fill-rule="evenodd">
                                        <path fill="#D9D9D9" d="M16.984 22.663l41.362-7.293a4 4 0 0 1 4.633 3.244l4.168 23.636a4 4 0 0 1-3.245 4.633L22.54 54.177a4 4 0 0 1-4.633-3.245l-4.168-23.635a4 4 0 0 1 3.245-4.634zm-1.392 9.384l1.39 7.878 47.27-8.335-1.39-7.878-47.27 8.335z"></path>
                                        <path fill="#898989" fill-rule="nonzero" d="M61.935 29.968l-.694-3.94-43.332 7.641.695 3.94 43.331-7.64zm.695 3.94l-43.332 7.64 1.737 9.848 43.331-7.64-1.736-9.849zM60.546 22.09l-.695-3.94-43.331 7.64.694 3.94 43.332-7.64zm-44.72-.238l43.33-7.64a4 4 0 0 1 4.635 3.244l4.514 25.605a4 4 0 0 1-3.244 4.634l-43.332 7.64a4 4 0 0 1-4.634-3.245l-4.514-25.605a4 4 0 0 1 3.244-4.633z"></path>
                                    </g>
                                </svg>