<svg xmlns="http://www.w3.org/2000/svg" viewBox="0 0 80 70">
                                    <g fill="none" fill-rule="evenodd">
                                        <path fill="#898989" d="M23 51h34v4H23z"></path>
                                        <path fill="#D9D9D9" d="M25 29h8V11h14v18h8L40 45z"></path>
                                        <path fill="#898989" fill-rule="nonzero" d="M49 27h6a2 2 0 0 1 1.46 3.368l-15 16a2 2 0 0 1-2.828.091 2 2 0 0 1-.091-.091l-15-16A2 2 0 0 1 25 27h6V9h18v18zm-4 4V13H35v18h-5.384L40 42.076 50.384 31H45z"></path>
                                    </g>
                                </svg>