<svg width="54" height="57" viewBox="0 0 54 57" xmlns="http://www.w3.org/2000/svg">
                            <g fill="#FFF" fill-rule="evenodd">
                                <path d="M24.605 49.094c-.102 0-.204-.02-.3-.063C2.17 39.267-.397 19.946.044 9.298c.01-.206.105-.4.263-.533.16-.133.367-.194.573-.166.382.05.7.073 1 .073 4.2 0 7.627-3.395 7.643-7.57.002-.405.332-.732.74-.732h28.683c.408 0 .738.327.74.732.016 4.175 3.444 7.57 7.642 7.57.3 0 .62-.022 1.005-.073.206-.026.413.034.572.167.16.133.254.326.263.533.27 6.49-.574 16.05-6.114 24.743-.218.343-.675.445-1.02.227-.345-.217-.448-.672-.23-1.015 5.12-8.034 6.073-16.87 5.912-23.12-.133.007-.262.01-.388.01-4.762 0-8.695-3.662-9.09-8.303H10.97c-.394 4.64-4.327 8.302-9.09 8.302-.125 0-.253-.003-.384-.01-.265 10.363 2.57 28.2 23.11 37.42 4.588-2.06 8.56-4.67 11.81-7.766.296-.28.764-.27 1.046.023.283.292.273.758-.022 1.04-3.446 3.28-7.663 6.032-12.535 8.18-.095.043-.197.064-.3.064"></path>
                                <path d="M44.285 57c-5.348 0-9.538-2.244-9.538-5.11V37.92c0-.407.33-.736.74-.736.408 0 .74.33.74.736v13.97c0 2.145 4.246 3.64 8.058 3.64 3.81 0 8.056-1.495 8.056-3.64V37.92c0-.407.332-.736.74-.736.41 0 .74.33.74.736v13.97c0 2.866-4.188 5.11-9.535 5.11"></path>
                                <path d="M44.285 52.343c-5.348 0-9.538-2.244-9.538-5.11 0-.406.33-.735.74-.735.408 0 .74.33.74.735 0 2.145 4.246 3.64 8.058 3.64 3.81 0 8.056-1.495 8.056-3.64 0-.406.332-.735.74-.735.41 0 .74.33.74.735 0 2.866-4.188 5.11-9.535 5.11"></path>
                                <path d="M44.285 47.685c-5.348 0-9.538-2.244-9.538-5.108 0-.407.33-.736.74-.736.408 0 .74.33.74.737 0 2.143 4.246 3.637 8.058 3.637 3.81 0 8.056-1.494 8.056-3.637 0-.407.332-.736.74-.736.41 0 .74.33.74.737 0 2.864-4.188 5.108-9.535 5.108"></path>
                                <path d="M44.285 34.282c-3.81 0-8.058 1.494-8.058 3.638 0 2.143 4.247 3.638 8.058 3.638 3.81 0 8.056-1.495 8.056-3.638 0-2.144-4.245-3.638-8.055-3.638m0 8.747c-5.348 0-9.538-2.245-9.538-5.11s4.19-5.11 9.538-5.11c5.347 0 9.535 2.245 9.535 5.11s-4.188 5.11-9.535 5.11M24.605 49.094c-.408 0-.74-.33-.74-.735V1.102c0-.406.332-.735.74-.735.41 0 .74.33.74.735V48.36c0 .405-.33.734-.74.734"></path>
                            </g>
                        </svg>