<svg width="25" height="25" xmlns="http://www.w3.org/2000/svg">
                            <g fill="none" fill-rule="evenodd">
                                <path d="M9.858 21.612c.092.03.184.06.277.06.184 0 .369-.09.492-.211L20.935 8.067l-12 6.818.923 6.727" fill="#A0B0C4"></path>
                                <path d="M10.042 16.036L20.35 7.643l-1.785-1.425-12.03 7.667 3.015 7.424c.062.182.246.303.43.364l.062-5.637" fill="#D0D8E2"></path>
                                <path d="M23.396 3.067L1.612 11.218c-.831.303-.8 1.455 0 1.758l5.353 1.909 11.539-7.303c.154-.091.338.121.185.242l-8.647 8.212 7.908 6c1.015.788 2.523.243 2.8-1l3.846-16.939c.154-.697-.523-1.303-1.2-1.03z" fill="#FFF"></path>
                            </g>
                        </svg>