<svg width="25" height="25" xmlns="http://www.w3.org/2000/svg">
                            <path d="M21.49 2.164c1.99 1.67 3.006 5.652 2.27 11.493-.714 5.662-4.958 6.02-5.74 6.266-2.393.57-4.86.773-7.318.604 0 0-2.89 3.416-3.798 4.303a.511.511 0 0 1-.416.17c-.193-.04-.193-.105-.193-.483v-4.66C.63 18.317.96 12.543 1.027 9.523c.068-3.02.648-5.5 2.368-7.17C6.507-.385 12.897.021 12.897.021c5.403.03 7.993 1.57 8.593 2.144zm-5.84 7.464l-.008-.047a.348.348 0 0 0 .337-.368 2.342 2.342 0 0 0-.683-1.795 2.46 2.46 0 0 0-1.82-.715c-.2 0-.363.158-.363.354 0 .195.162.354.363.354a1.74 1.74 0 0 1 1.363.525c.352.366.518.865.454 1.362.01.185.167.33.357.33zm1.848.604a.35.35 0 0 0 .376-.34 4.711 4.711 0 0 0-1.266-3.47 5.294 5.294 0 0 0-3.624-1.558.355.355 0 0 0-.382.325.353.353 0 0 0 .333.373c1.186.02 2.316.5 3.142 1.33a4.021 4.021 0 0 1 1.073 2.982.343.343 0 0 0 .097.25.37.37 0 0 0 .25.11v-.002zm1.894.728l-.03-.038c.098 0 .19-.038.257-.106a.341.341 0 0 0 .1-.253 7.392 7.392 0 0 0-2.164-5.528 7.497 7.497 0 0 0-5.288-2.048c-.2 0-.362.16-.362.354 0 .195.162.354.362.354A6.775 6.775 0 0 1 17.1 5.582a6.63 6.63 0 0 1 1.934 5.03.356.356 0 0 0 .357.348zm-5.828 3.038c-2.16-.666-3.852-2.312-4.543-4.416a.932.932 0 0 1 .29-.764l.668-.52a1.12 1.12 0 0 0 .203-1.452 15.206 15.206 0 0 0-.84-1.293c-.28-.386-.967-1.198-.967-1.198a1.03 1.03 0 0 0-1.334-.207c-.51.29-.97.655-1.364 1.085a2.106 2.106 0 0 0-.54 1.095.612.612 0 0 0 0 .16c-.002.16.024.32.076.472a15.915 15.915 0 0 0 1.43 3.02c.5.89 1.075 1.74 1.72 2.538a12.915 12.915 0 0 0 2.206 2.15c.814.618 1.68 1.168 2.59 1.643.978.57 2.015 1.037 3.093 1.396.156.05.32.077.484.076h.164a2.21 2.21 0 0 0 1.12-.528 5.469 5.469 0 0 0 1.113-1.33.973.973 0 0 0-.212-1.303s-.82-.652-1.227-.945c-.426-.295-.868-.57-1.323-.82a1.191 1.191 0 0 0-1.49.207l-.53.65a.98.98 0 0 1-.783.284h-.004z" fill="#FFF" fill-rule="nonzero"></path></svg>