<svg width="25" height="25" xmlns="http://www.w3.org/2000/svg">
                            <g fill="none" fill-rule="evenodd">
                                <path d="M.058 25l1.759-6.417a12.392 12.392 0 1 1 10.741 6.209 12.383 12.383 0 0 1-5.891-1.517L.058 25zm6.875-3.967l.375.225a10.3 10.3 0 1 0-3.483-3.392l.242.392-1.034 3.8 3.9-1.025z" fill="#FFF" fill-rule="nonzero"></path>
                                <path d="M12.55 22.692a10.3 10.3 0 1 0-8.725-4.825l.242.391-1.034 3.8 3.9-1.025.375.225a10.283 10.283 0 0 0 5.242 1.434z" fill="#00E676"></path>
                                <path d="M9.458 7.208c-.233-.516-.475-.525-.7-.533h-.591c-.32.006-.622.145-.834.383A3.475 3.475 0 0 0 6.25 9.642a6.025 6.025 0 0 0 1.25 3.2c.158.208 2.142 3.433 5.292 4.675 2.616 1.033 3.15.833 3.716.775a3.125 3.125 0 0 0 2.092-1.475c.204-.463.268-.976.183-1.475-.075-.125-.283-.209-.591-.359-.309-.15-1.834-.9-2.117-1.008-.283-.108-.492-.158-.7.158-.208.317-.833 1.009-.983 1.217-.15.208-.359.233-.675.075a8.467 8.467 0 0 1-2.5-1.533 9.325 9.325 0 0 1-1.725-2.142c-.184-.308 0-.475.133-.633.133-.159.308-.359.467-.542.126-.157.23-.33.308-.517a.567.567 0 0 0 0-.541c-.067-.167-.667-1.692-.942-2.309z" fill="#FFF"></path>
                            </g>
                        </svg>